<svg fill="none" height="500" viewBox="0 0 500 500" width="500" xmlns="http://www.w3.org/2000/svg"><g clip-rule="evenodd" fill-rule="evenodd"><path d="m223.58 203.681c26.459-1.439 86.957 8.729 127.512 68.132-10.592 24.342-23.725 52.724-34.092 75.161 9.365 49.681 14 110.562 11.216 126.138-62 12.619-119.433 14.871-177.169 8.424-27.868-3.112-71.8579-46.712-86.3429-90.023 0 0 0-97.875 26.04-129.669 21.4909-26.24 40.9389-43.089 69.8059-49.977 7.337-1.749 40.646-6.969 63.026-8.186z" fill="#a957e1"/><path d="m316.162 341.191c-3.738-19.97-22.323-23.94-14.586-23.33 8.83.7 12.119 1.2 7.394-5.743-5.058-7.437-13.456-11.832-9.722-14.319 4.674-3.107 3.309-7.791-2.154-17 8.115 4.411 12.951 12.108 15.273 23.742 1.54 7.717 19.064-5.423 12.112 5.095-2.848 4.3 6.248 10.006 3.05 16.743s-7.711 11.161-11.367 14.817z" fill="#a046de"/><path d="m164.821 322.083c-5.948-20.617-32.305-27.489-40.447-24.533-6.477 2.352 22.778 4.765 28.466 22.653 1.911 6.009-13.122-2.925-14.326 2.086-1.348 5.631 19.769 10.228 20.611 15.367s-16.317 7.1-18.11 13.352c-3.748 13.046-33.03 3.9-27.118 10.107 6.19 6.5 34.987 4 43.638-5.507-15.526 28.565-33.576 25.137-37.812 28.467-12.213 9.591 25.356-3.148 25.6 1.287.324 6.046-10.669 13.821-27.263 20.278 29.921 5.837 31.64 76.92 31.95 76.36 21.487-28.057 60.572-25.855 51.767-29.124-18.145-6.73-45.206 15.367-44.454 7.848 2.689-26.886 31.176-28.348 25.42-33.518-8.759-7.859-16.6-4.152-14.208-12.284 4.408-15.013 31.011-14.875 27.587-18.511s-31.756 9.1-33.566.853c-2.356-10.748 13.211-15.334 7.34-23.759-5.48-7.869-11.873-4.24-9.8-9.281 6.47-15.782 23.853-13.72 17.362-18.192-5.328-3.669-16.971 13.326-16.334 8.867 1.644-11.536 3.852-24.123 13.874-45.5-4.893 5.092-7.657 8.209-10.174 12.694z" fill="#a046de"/><path d="m294.685 352.107c-18.674-13.467-94.388 1.951-83.28-10.784 13.773-15.789 48.774-17.089 50.54-21.359 1.243-3.013-20.766-12.634-44.208-1.827-9.156 4.223-.243-8.721 20.672-15.128 12.819-3.923 11.751-15.677-1.429-21.177 34.815 10.818 2.241 21.659 11.97 26.158s20.689 7.084 31.05 15.71-61.392 6.026-49.513 12.6 45.7-2.7 64.2 15.8z" fill="#a046de"/><path d="m304.353 92.09c11.644 20.52 26.9 76.253 1.769 102.832-14.144 14.963-38.637 16.942-38.546 17.137 12.742 27.169.6 57.883-32.7 58.2-29.717.28-64.013-30.442-74.406-58.426 12.657-2.71 28.028-4.233 28.951-10.329 1.385-9.153-.32-12.132-.657-12.254-38.826 1.635-29.043-43.19-4.64-31.5-1.2-21.79-6.872-65.951 8.007-78.481 31.715-26.707 100.453-7.909 112.218 12.82z" fill="#ffbf9b"/><path d="m156.19 397.036c-34.1 14.973-79.9 8.186-91.482-5.523.169 22.967 1.224 50.043 1.821 76.673 5.422 22.748 46.582 28.573 84.522 13.35-.448-20.61 2.7-61.921 5.139-84.5z" fill="#ffbf9b"/><path d="m364.815 215.978c6.042 9.979 16.1 37.964 20.766 60.189s12.319 106.29-35.251 108.451c-39.254 1.782-34.445-44.618-34.445-44.618 7.344-14.592 12.53-26.239 16.662-50.1-9.271-.253-14.474-7.347-17.737-17.7-17.51 7.06-35.476-23.924-14.326-36.1-.825-6.578 3.391-13.129 13.39-13.955-.944-5.584 1.988-11.283 13.709-11.99-10.248-16.3-28.9-14.266-24.925-25.252 3.916-10.821 37.943-8.9 62.157 31.078z" fill="#ffbf9b"/></g><path d="m345.8 221.323c-.132 0-.262-.031-.38-.09s-.22-.146-.298-.252c-4.425-5.554-10.859-9.143-17.91-9.99-.11-.009-.218-.04-.316-.09-.098-.051-.186-.121-.257-.205-.072-.084-.126-.182-.16-.287-.033-.106-.046-.217-.037-.327.019-.223.125-.429.295-.573.085-.072.182-.126.288-.16.105-.033.216-.046.326-.037 7.529.905 14.4 4.737 19.126 10.667.066.089.114.19.14.298.027.107.032.219.016.328-.017.11-.054.215-.112.31-.057.095-.132.177-.221.243-.144.108-.32.166-.5.165z" fill="#29263b"/><path d="m332.789 229.95c-.201.001-.395-.07-.547-.2-5.785-4.952-12.05-7.248-18.606-6.8-.112.009-.224-.003-.331-.038-.106-.034-.205-.09-.29-.163s-.154-.162-.204-.262-.08-.209-.087-.321c-.008-.112.007-.224.043-.33.037-.106.094-.203.168-.287.075-.083.165-.151.266-.2.101-.048.211-.076.323-.081 7.018-.467 13.682 1.955 19.813 7.2.131.112.224.261.268.428.043.167.034.343-.026.504-.059.162-.167.301-.308.399-.142.099-.31.151-.482.151z" fill="#29263b"/><path d="m318.308 239.748c-.177 0-.349-.056-.493-.16-2.836-2.048-10.152-6.423-16.833-2.855-.197.105-.428.128-.642.063-.213-.065-.393-.212-.498-.409s-.128-.428-.063-.642c.065-.213.212-.393.409-.498 5.3-2.829 12.079-1.744 18.614 2.975.144.104.252.252.307.421.056.17.056.352.001.522-.055.169-.162.317-.306.422s-.318.161-.496.161z" fill="#29263b"/><path d="m314.715 272.773c-.186 0-.367-.062-.514-.176-.148-.114-.253-.273-.3-.453-2.3-8.8-5.7-12.937-11.04-13.424-.223-.02-.428-.128-.571-.3s-.212-.393-.192-.615c.021-.223.129-.428.3-.571.172-.143.393-.212.616-.192 7.973.728 10.962 8.725 12.517 14.676.056.216.025.445-.088.638-.112.193-.296.333-.512.39-.071.018-.143.028-.216.027z" fill="#29263b"/><path d="m272.519 232.344c-28.623-1.117-46.627-13.093-59.2-30.621 16.058 8.284 34.479 11.468 54.257 10.336 3.67 8.32 4.595 13.203 4.943 20.285z" fill="#ea9465"/><path d="m290.519 160.738c-.124 0-.247-.028-.36-.081-.201-.096-.357-.268-.432-.478-.075-.211-.063-.442.032-.644 2.175-4.6 2.622-8.36 1.368-11.509-1.316-3.308-4.518-5.912-9.788-7.964-.103-.04-.197-.1-.277-.177-.08-.076-.144-.168-.188-.269-.045-.101-.069-.21-.072-.321-.002-.11.017-.22.058-.324.04-.103.1-.197.176-.277.077-.08.168-.144.27-.188.101-.045.21-.069.32-.071.111-.003.221.017.324.057 5.73 2.23 9.244 5.145 10.743 8.911 1.416 3.557.941 7.881-1.41 12.852-.068.145-.176.267-.312.353-.135.085-.292.13-.452.13z" fill="#29263b"/><path d="m253.934 180.1c-.16 0-.317-.045-.452-.131s-.242-.208-.31-.353-.094-.306-.073-.465c.02-.158.085-.308.187-.431 4.064-4.9 8.075-7.482 11.924-7.684 3.021-.161 5.963 1.133 8.741 3.841.152.158.236.368.236.587-.001.219-.087.43-.24.586-.153.157-.361.248-.58.254s-.431-.073-.593-.221c-2.427-2.366-4.939-3.5-7.475-3.365-3.36.177-6.966 2.558-10.716 7.078-.079.095-.178.172-.29.225-.113.052-.235.079-.359.079z" fill="#29263b"/><path d="m230.238 121.666c-.505 0-1.002-.116-1.455-.339-.453-.224-.848-.548-1.155-.949s-.517-.867-.615-1.362-.08-1.006.051-1.493c1.714-6.351 4.719-10.666 8.931-12.825 4.23-2.168 9.527-2.083 15.745.253.404.152.774.382 1.089.676.315.295.569.649.747 1.042.179.393.278.817.292 1.248.015.431-.056.861-.208 1.265s-.381.774-.676 1.089-.649.569-1.042.747c-.393.179-.817.278-1.248.292s-.861-.056-1.265-.208c-4.412-1.659-7.924-1.846-10.436-.557-2.494 1.279-4.373 4.2-5.584 8.691-.188.697-.601 1.313-1.174 1.752s-1.275.677-1.997.678z" fill="#b18b00"/><path d="m300.431 117.514c-.68 0-1.343-.211-1.899-.604-.555-.393-.974-.948-1.201-1.589-1.766-5-4.743-6.566-10.285-5.388-.424.095-.863.106-1.291.03-.428-.075-.837-.235-1.203-.47-.366-.234-.682-.539-.93-.897-.247-.357-.421-.761-.511-1.186-.091-.425-.096-.864-.015-1.291.08-.428.245-.835.484-1.198s.548-.675.908-.918c.361-.244.766-.413 1.192-.498 8.8-1.867 14.965 1.461 17.848 9.629.175.496.228 1.026.155 1.547-.072.52-.269 1.016-.572 1.445-.304.428-.706.778-1.173 1.02s-.984.368-1.51.368z" fill="#b18b00"/><path clip-rule="evenodd" d="m244.171 119.7c-2.7 0-4.883 4.074-4.883 9.092s2.187 9.092 4.883 9.092 4.884-4.074 4.884-9.092-2.191-9.092-4.884-9.092z" fill="#0014ff" fill-rule="evenodd"/><path clip-rule="evenodd" d="m295.1 116.635c-2.693 0-4.883 4.074-4.883 9.092s2.19 9.092 4.883 9.092 4.883-4.074 4.883-9.092-2.187-9.092-4.883-9.092z" fill="#0014ff" fill-rule="evenodd"/><path d="m183.844 182.012c-.207 0-.407-.077-.561-.215-.155-.138-.253-.328-.276-.534-.625-5.625-2.747-12.292-13.7-13.934-.221-.033-.42-.153-.552-.332-.133-.18-.189-.405-.156-.626s.153-.42.332-.552c.18-.133.405-.189.626-.156 12.222 1.832 14.484 9.674 15.122 15.413.025.222-.04.445-.179.62-.14.174-.343.286-.565.311-.029.003-.06.005-.091.005z" fill="#29263b"/><path clip-rule="evenodd" d="m184.1 157.788c17.612-27.014 22.138-51.848 12.985-74.123 61.405 21.962 118.574 30.006 140.557 6.807 9.112-9.615 13.025-34.735.674-50.318-3.171 5.891-14.168 6.962-24.733 3.877-32.083-9.368-107.146-51.54901-148.698 20.556-26.556 25.433-20.737 62.227-2.144 105.091.941-10.617 10.19-17.45 21.356-11.89z" fill="#e1b100" fill-rule="evenodd"/><path d="m299.168 99.512c-.336.0005-.66-.1289-.903-.3613-.244-.2323-.388-.5496-.403-.8856-.015-.3361.101-.6649.322-.918.222-.253.533-.4107.868-.4401 21.865-1.989 32.334-12.146 32-31.051-.004-.1715.026-.342.089-.5017.062-.1597.156-.3055.275-.429.119-.1234.261-.2221.419-.2903.157-.0682.326-.1045.498-.107h.024c.342 0 .67.1345.913.3744s.382.5659.387.9076c.354 20.252-11.212 31.589-34.377 33.7-.035.0013-.072.002-.112.002zm-16.2-3.493c-.319.009-.63-.0995-.874-.3047-.244-.2053-.404-.493-.449-.8085-.046-.3156.026-.6369.202-.9029.175-.266.443-.4581.751-.5399 17.257-5.12 26-14.174 26.713-27.681.007-.1718.049-.3404.122-.496s.177-.2949.305-.4099c.128-.1149.277-.2032.44-.2595.162-.0564.334-.0797.506-.0686.171.0084.339.0507.494.1243.155.0737.294.1772.409.3048.114.1275.203.2765.26.4383.056.1619.081.3333.071.5046-.773 14.541-10.388 24.649-28.578 30.045-.12.0356-.244.0538-.369.054zm-16.6-3.268c-.334.0167-.661-.0958-.914-.3142s-.413-.5258-.445-.8585.065-.6651.271-.9281.506-.4364.837-.4842c6.747-1.332 12.092-5.942 13.618-11.747.805-3.3565.479-6.8851-.928-10.037-.138-.3183-.144-.6783-.016-1.0008.127-.3226.378-.5813.696-.7192s.678-.1437 1.001-.0162c.322.1275.581.3779.719.6962 1.639 3.6897 2.01 7.818 1.057 11.741-1.778 6.765-7.915 12.12-15.637 13.644-.086.0168-.173.0248-.26.024z" fill="#b18b00"/><path clip-rule="evenodd" d="m369.966 33.792c-.06-12.5 9.649-23.351 31.382-23.782s36.241 13.182 33.644 23.725c-3.389 13.752-27 17.615-26.618 32.123.059 2.207-14.318 2.008-14.318-.2-.331-14.452 28.348-21.434 28.781-32.193.379-9.432-7.325-14.546-21.371-14.546-9.759 0-17.961 5.028-18.68 14.76-.123 2.057-12.809 2.172-12.82.113z" fill="#e1b100" fill-rule="evenodd"/><path clip-rule="evenodd" d="m401.135 72.714c5.477 0 9.924 2.945 9.924 6.574s-4.447 6.572-9.924 6.572-9.922-2.945-9.922-6.572 4.447-6.574 9.922-6.574z" fill="#e1b100" fill-rule="evenodd"/></svg>