<svg fill="none" height="500" viewBox="0 0 500 500" width="500" xmlns="http://www.w3.org/2000/svg"><path clip-rule="evenodd" d="m308.878 323.257s29.257-17.946 30-22.471-20.2-37.378-20.2-37.378l16.041-30.792s47.976 53.422 46.485 70.845-51.612 58.878-51.612 58.878-21.134-38.948-20.715-39.082z" fill="#ffa775" fill-rule="evenodd"/><path d="m339.69 301.726c-.263 0-.517-.091-.719-.259s-.339-.401-.386-.66c-.048-.258-.003-.525.125-.754.129-.228.334-.405.58-.498 3.281-1.184 6.853-1.294 10.2-.315.143.037.277.101.395.189.118.089.217.2.292.326.075.127.124.267.145.413s.013.295-.024.438c-.036.142-.1.276-.189.394-.088.118-.199.217-.326.293-.127.075-.267.124-.413.145s-.294.013-.437-.024c-2.9-.86-5.999-.776-8.849.238-.126.048-.259.073-.394.074z" fill="#29263b"/><path clip-rule="evenodd" d="m141.82 446.514-4.4 30.992c6.9 4.839 16.769 6.557 27.666 4.427l3.237-27.688-26.5-7.731z" fill="#ffbf9b" fill-rule="evenodd"/><path clip-rule="evenodd" d="m199.984 350.709c-10.363 2.892-27.289 5.15-34.221 14.83-14.588 20.378-20.786 52.823-25.239 82.091 6.269 3.78 16.883 8.479 26.33 7.716l-2.821 26.582c44.515 11.331 85.85 9.889 125.31.908 6.837-31.355 8.436-65.108 8.441-84.634l38.264-25.828c-1.548-20.8-9.812-44.235-26.4-52.021l-56.976 27.769-52.689 2.587z" fill="#86b4ff" fill-rule="evenodd"/><path d="m167.317 456.434c-.057 0-.114-.004-.17-.013-.294-.045-.558-.205-.735-.444-.176-.24-.25-.54-.205-.834 3.763-24.724 5.068-44.559 4.108-62.423-.008-.147.013-.294.062-.433s.125-.267.224-.377c.098-.11.217-.199.35-.262.133-.064.277-.101.424-.109.148-.007.295.014.434.063s.267.125.376.223c.11.099.199.218.263.351.063.133.1.277.108.424.968 18.021-.344 38-4.13 62.881-.041.265-.175.507-.378.682-.204.175-.463.271-.731.271z" fill="#29263b"/><path clip-rule="evenodd" d="m141.794 218.271c-10.945-2.775-16.315-10.152-9.983-27.184-19.1-11.748-20.472-25.63 5.01-42.754-16.832-22.207-1.858-41.9 26.09-29.61 1.362-20.572 10.4-29.088 31.834-18.108 4.2-26.307 39.106-30.367 47.353-4.211 16.4-18.842 44.761-5.1 40.759 15.093 23.124-6.725 45 13.452 36.184 35.894 20.721 2.35 24.8 22.248 14.945 33.21 21.426 10.766 18.471 28.243 4.762 33.347 11.071 20.572 10.84 34.2-7.008 37.016 1.227 17.072-5.6 31.983-22.648 25.768-4.048 12.144-14.376 17.22-24.468 11.707z" fill="#29263b" fill-rule="evenodd"/><path clip-rule="evenodd" d="m157.4 181.6s-40.19 53.551-30.618 96.216c11.248 50.131 65.2 48.58 81.882 49.2 3.14 27.023-9.827 25.51-9.827 25.51-9.509 42.857 38.969 43.99 57.973-5.849-14.945-7.937-16.309-21.8 3.5-51.538 30.958 23.269 57.887-23.578 27.255-34.015-5.866-6.647-3.8-18.537 3.968-23.678-15.147.922-11.393-14.677-2.669-25.191-22.644 6.263-23.929-6.367-15.025-22.254-22.042 9.521-30.307-1-25.648-16.529-18.071 19.835-40.255 20.218-35.942-.985-19.51 21.385-39.376 22.333-38.266 5.027-5.136 8.034-15.213 10.42-16.586 4.083z" fill="#ffa775" fill-rule="evenodd"/><path clip-rule="evenodd" d="m231.541 319.982c-5.758 3.9-15.7 6.489-22.881 7.032.452 3.56.586 7.154.4 10.738 10.122-.49 19.153-7.982 22.481-17.77z" fill="#f08855" fill-rule="evenodd"/><g fill="#29263b"><path d="m272.992 289.792c-.19 0-.377-.048-.544-.141-.166-.092-.306-.225-.407-.387-.101-.161-.159-.346-.169-.536-.009-.19.029-.379.113-.55 4.977-10.194 12.949-13.933 23.694-11.121.288.075.534.262.684.519.151.257.193.563.117.851-.075.288-.262.534-.519.684s-.563.192-.851.117c-9.7-2.541-16.6.71-21.109 9.935-.092.189-.236.348-.414.459-.179.111-.385.17-.595.17z"/><path d="m163.938 247.461c-.163 0-.324-.036-.472-.105s-.279-.17-.384-.295c-5.3-6.227-7.19-11.816-5.624-16.611 2.07-6.338 9.866-11.04 23.834-14.375.143-.034.292-.04.438-.017.145.024.285.075.41.152.126.078.235.179.321.298.087.119.149.255.183.398s.04.292.017.438c-.024.145-.075.285-.152.41-.078.126-.179.235-.298.321-.119.087-.255.149-.398.183-12.962 3.095-20.439 7.431-22.222 12.888-1.308 4 .442 8.869 5.2 14.461.139.163.229.362.258.575.029.212-.003.428-.093.623-.089.194-.233.359-.413.474-.181.116-.391.177-.605.177z"/><path d="m195.647 284.628c-.159 0-.317-.033-.462-.099s-.274-.161-.379-.281c-4.262-4.84-7.946-7.143-10.881-6.888-2.118.193-4 1.7-5.749 4.615-.158.246-.405.421-.69.488-.284.066-.584.019-.834-.132-.251-.15-.433-.392-.507-.675-.075-.283-.036-.583.107-.838 2.115-3.519 4.629-5.435 7.47-5.693 3.747-.335 7.938 2.157 12.767 7.64.143.162.236.362.268.575.032.214.002.432-.087.629-.089.196-.233.363-.414.48-.182.117-.393.179-.609.179z"/><path d="m252.41 209.219c-.67-.001-1.315-.251-1.81-.703-.496-.451-.805-1.07-.868-1.737-.548-5.818-2.048-9.71-4.459-11.568-1.681-1.3-3.938-1.69-6.9-1.2-.705.116-1.427-.053-2.007-.469-.581-.416-.972-1.046-1.088-1.751s.053-1.427.469-2.007c.416-.581 1.046-.972 1.751-1.088 4.451-.733 8.175.024 11.064 2.251 3.691 2.846 5.828 7.86 6.532 15.327.067.711-.151 1.419-.607 1.97-.455.55-1.11.897-1.821.964-.086.007-.172.011-.256.011z"/><path d="m156.577 199.507c-.469 0-.929-.123-1.336-.356s-.746-.568-.984-.972c-.237-.404-.365-.863-.371-1.331-.006-.469.11-.931.338-1.341 2.4-4.34 5.167-6.858 8.445-7.7 2.9-.745 6.014-.085 9.255 1.958.603.381 1.03.986 1.187 1.682s.032 1.426-.348 2.029c-.381.604-.985 1.032-1.68 1.19-.696.159-1.426.035-2.03-.344-1.966-1.24-3.61-1.664-5.045-1.3-1.741.447-3.448 2.161-5.073 5.093-.233.422-.574.773-.989 1.018s-.887.374-1.369.374z"/><path clip-rule="evenodd" d="m234.93 205.689c3.149.811 4.5 6.141 3.026 11.9s-5.239 9.772-8.387 8.965-4.5-6.141-3.027-11.9 5.236-9.771 8.388-8.964z" fill-rule="evenodd"/><path clip-rule="evenodd" d="m160.719 201c2.809.619 4.131 5.49 2.946 10.871s-4.425 9.247-7.237 8.627-4.131-5.49-2.946-10.868 4.428-9.25 7.237-8.63z" fill-rule="evenodd"/></g><path clip-rule="evenodd" d="m303.838 38.623c-.073-15.038 11.608-28.093 37.754-28.611s43.6 15.859 40.476 28.542c-4.077 16.546-32.485 21.193-32.023 38.646.07 2.655-17.226 2.416-17.226-.241-.4-17.386 34.1-25.787 34.626-38.73.456-11.348-8.813-17.5-25.711-17.5-11.74 0-21.608 6.048-22.473 17.756-.148 2.475-15.411 2.614-15.423.136z" fill="#e1b100" fill-rule="evenodd"/><path clip-rule="evenodd" d="m341.336 85.449c6.59 0 11.939 3.543 11.939 7.909s-5.349 7.907-11.939 7.907-11.936-3.543-11.936-7.907 5.349-7.909 11.937-7.909z" fill="#e1b100" fill-rule="evenodd"/></svg>