<svg fill="none" height="500" viewBox="0 0 500 500" width="500" xmlns="http://www.w3.org/2000/svg"><path clip-rule="evenodd" d="m336.512 71.725c-4.621 8.589-12.29 13.971-23.275 15.87 5.066 5.3996 11.855 8.865 19.2 9.8-38.559 71.914-29.183 116.835 7.691 162.666l-14.305-4.662 8.69 15.634c-67.8 46.656-172.174 49.79-256.721 21.284l15.82-15-28.595 7.833c26-36.432 1.159-106.344 29.4-163.982 26.077-53.229 91.573-76.481 151.567-71.013 43.49 3.962 75.045 23.768 90.531 21.57z" fill="#494f9b" fill-rule="evenodd"/><path clip-rule="evenodd" d="m370.157 324.629c-1.757-9.5-22.273-26.925-25.854-36.657-7.414-20.137-.387-37.349-7.722-42.231-5.106-3.4-17.921-1.958-13.354 34.981-15.152-6.273-18.229 6.6-17.832 10.844-6.378.356-10.828 10.878-7.751 16.793-3.219 17.394 4.126 23.145 17.42 19.192 7.851 8.9 16.33 9.874 28.121 6.913.18 15.568-6.894 23.076-11.706 33.951l-14.479-12.175-19.1 27.242s24.446 25.864 37.205 23.782c30.616-4.989 37.1-71.549 35.05-82.635z" fill="#ffa775" fill-rule="evenodd"/><path d="m330.9 376.5c-.327 0-.64-.13-.872-.36s-.364-.543-.366-.87l-.044-6.195c-.001-.163.03-.324.091-.474.061-.151.151-.288.265-.404.114-.115.25-.208.4-.271s.31-.096.473-.097h.009c.327 0 .64.13.872.36s.364.543.366.87l.044 6.195c.001.162-.03.324-.091.474-.061.151-.151.288-.265.404-.114.115-.25.207-.4.271-.15.063-.311.096-.473.097z" fill="#29263b"/><path clip-rule="evenodd" d="m256.635 314.62s18.012 6.733 23.813 9.914c12.891 7.071 50.744 40.4 50.744 40.4-10.135 5.666-22.8 20.059-26.893 33.6l13.391 64.557c-17.57 26.679-117.03 35.365-131.646 17.631-7.609-23.536-19.215-36.465-40.376-44.4 0 0 .069-53.021 19.624-86.5 9.281-15.889 31.772-33.022 31.772-33.022l59.571-2.182z" fill="#8ed8aa" fill-rule="evenodd"/><path d="m303.148 398.19c-.283 0-.558-.098-.778-.276-.221-.178-.373-.427-.432-.704-2.391-10.692-5.546-21.198-9.441-31.438-.107-.306-.09-.642.048-.935.139-.294.386-.521.69-.634s.64-.102.936.03c.296.133.528.376.647.678 3.947 10.349 7.136 20.971 9.542 31.783.034.159.036.323.007.483-.03.16-.091.312-.179.449-.089.136-.203.254-.337.346s-.285.157-.444.191c-.085.018-.172.027-.259.027z" fill="#29263b"/><path clip-rule="evenodd" d="m257.13 310.973 7.225 4.651s17.8 30.9 1.146 37.9c-13.426 5.637-28.66-6.665-28.66-6.665s-9.285 16.6-26.521 14.538c-20.012-2.4-23.612-41.141-23.612-41.141l8.252-6.6z" fill="#fff" fill-rule="evenodd"/><path clip-rule="evenodd" d="m187.751 437.845c-12.866 4.592-31.583 2.321-42.036-4.176-1.748 19-1.742 35.859.164 50.4 10.664 6.157 25.75 6.63 43.355 1.937-3.335-16.021-3.439-31.721-1.483-48.158z" fill="#ffa775" fill-rule="evenodd"/><path d="m187.831 439.052c-.056 0-.111-.004-.166-.012-.161-.022-.317-.075-.457-.156-.141-.082-.264-.191-.363-.32-.098-.129-.17-.277-.212-.434s-.052-.321-.03-.482c1.3-9.716 3.475-17.851 6.449-24.18.066-.151.162-.288.282-.402.12-.113.262-.202.417-.26s.319-.084.484-.078c.166.007.328.047.477.117.15.07.284.17.394.293.111.123.196.266.25.423.054.156.076.321.065.486s-.055.326-.129.474c-2.866 6.1-4.965 13.992-6.236 23.458-.04.297-.186.569-.411.766-.226.197-.515.306-.814.307z" fill="#29263b"/><path clip-rule="evenodd" d="m294.1 110.123s47.2 70.352 42.943 114.3c-4.509 46.565-61.688 58.567-91.583 59.94-4.522 13.961.217 26.71 11.937 31.561-3.453 10.988-10.476 20.508-19.955 27.05-12.478-4.145-25.845-12.5-40.326-26.118 12.157-4.545 19.215-23.59-4.422-59.437-42.807 20.141-60.661-42.52-13.9-35.522-12.617-23.983-22.037-46.237-27.612-73.187l19.87-15.483-2.135-24.858 9.332 20.786 38.839-11.9-3.027-23.18 13.278 18.846 39-4.208-5.713-19.618 16.623 19.256 16.852 1.773z" fill="#ffa775" fill-rule="evenodd"/><path clip-rule="evenodd" d="m223.6 281.931c2.128 6.944 8.291 14.068 20.388 15.9-.489-4.545.014-9.142 1.475-13.474-6.947.252-13.696-.615-21.863-2.426z" fill="#f08855" fill-rule="evenodd"/><path d="m285.526 190.368c-.178-.001-.353-.039-.514-.114-.162-.074-.305-.182-.422-.316-.116-.134-.202-.292-.252-.463-.05-.17-.063-.349-.038-.525 1.213-8.252.273-13.716-2.793-16.24s-8.6-2.41-16.432.353c-.154.059-.319.087-.484.081s-.328-.044-.478-.114c-.15-.069-.284-.168-.395-.29-.112-.122-.197-.265-.252-.421s-.079-.321-.069-.486.053-.327.126-.475.175-.28.3-.388.271-.19.428-.241c8.83-3.114 14.989-3.092 18.83.07s5.035 9.213 3.669 18.511c-.044.294-.191.562-.416.756-.224.194-.511.301-.808.302z" fill="#29263b"/><path clip-rule="evenodd" d="m275.718 218.962c7.58 1.241 8.478 20.849-3.493 20.3s-7.537-22.109 3.493-20.3z" fill="#971b1b" fill-rule="evenodd"/><g fill="#29263b"><path d="m184.628 149.272c-.246 0-.492-.031-.731-.091-.764-.194-1.419-.683-1.822-1.36s-.521-1.486-.328-2.25c3.177-12.545 11.079-19.247 22.851-19.381.784.002 1.537.31 2.097.859.56.548.884 1.294.903 2.078.007.787-.298 1.545-.848 2.107-.551.563-1.302.884-2.089.893-9.159.1-14.611 4.838-17.16 14.9-.161.64-.531 1.209-1.052 1.615-.52.407-1.161.628-1.821.63z"/><path d="m294.587 133.176c-.595 0-1.176-.178-1.668-.512s-.873-.808-1.093-1.361c-.573-1.578-1.5-3.004-2.708-4.169-1.209-1.164-2.669-2.037-4.267-2.551-1.224-.342-2.512-.39-3.759-.139-1.246.25-2.416.792-3.413 1.58-.627.477-1.418.686-2.199.58-.782-.106-1.489-.518-1.966-1.145s-.686-1.418-.58-2.2c.106-.781.518-1.488 1.145-1.965 1.722-1.351 3.739-2.277 5.887-2.7s4.365-.333 6.471.264c2.481.759 4.754 2.077 6.645 3.853 1.892 1.775 3.35 3.961 4.264 6.389.179.451.245.938.192 1.42s-.222.944-.494 1.345c-.272.402-.638.731-1.067.958-.428.228-.905.347-1.39.348z"/><path clip-rule="evenodd" d="m204.528 149.479c-3.376 1.086-4.353 7.457-2.18 14.216s6.683 11.367 10.063 10.28 4.352-7.458 2.179-14.217-6.683-11.366-10.062-10.279z" fill-rule="evenodd"/><path d="m181.042 246c-.168 0-.335-.034-.49-.1-.155-.067-.294-.164-.41-.287-5.805-6.127-12.878-8.3-21.625-6.639-.161.034-.327.035-.489.004s-.316-.094-.453-.185-.254-.209-.345-.346-.154-.292-.185-.453c-.031-.162-.029-.328.006-.489.034-.162.1-.314.194-.449.094-.136.214-.251.353-.339s.295-.148.457-.175c9.508-1.807 17.543.675 23.884 7.368.166.176.277.397.32.635.042.238.013.484-.082.706-.096.222-.255.412-.457.545s-.439.204-.681.204z"/><path clip-rule="evenodd" d="m286.583 136.065c-3.111.791-4.311 6.661-2.674 13.1s5.493 11.02 8.608 10.226 4.308-6.658 2.674-13.095-5.493-11.02-8.608-10.23z" fill-rule="evenodd"/><path d="m297.98 309.682c-.202 0-.402-.05-.58-.145-.179-.095-.331-.233-.445-.401-.113-.167-.183-.36-.205-.561-.021-.202.007-.405.082-.593.41-1.088 1.039-2.081 1.847-2.917.808-.835 1.779-1.497 2.853-1.943 3.474-1.471 8.245-1.05 13.8 1.222.153.06.293.149.412.263.118.114.212.251.277.402s.1.314.101.478c.001.165-.03.328-.092.48-.063.152-.155.291-.271.407s-.255.208-.407.27-.315.094-.48.092c-.164-.002-.327-.036-.478-.101-4.857-1.987-9.083-2.427-11.9-1.233-.771.322-1.468.799-2.048 1.401s-1.03 1.316-1.323 2.099c-.091.229-.249.426-.452.565-.204.139-.444.214-.691.215z"/><path d="m314.563 328.238c-.168 0-.335-.034-.49-.1s-.294-.164-.41-.286c-1.339-1.365-2.396-2.981-3.11-4.755-.713-1.774-1.07-3.672-1.05-5.584.017-.326.159-.633.397-.857.238-.223.553-.346.88-.343.163.005.323.042.471.109s.282.162.394.281c.111.119.198.258.256.41.057.152.084.314.079.477-.019 3.201 1.233 6.278 3.481 8.557.167.176.278.397.321.635.042.238.014.484-.082.707-.096.222-.255.412-.457.545-.203.133-.44.203-.682.203z"/><path d="m316.534 295.528c-.194 0-.384-.046-.557-.133-4.528-2.288-8.3-3.185-10.351-2.455-.31.11-.65.092-.946-.049-.297-.142-.525-.395-.635-.705-.109-.309-.091-.649.05-.946.141-.296.394-.524.704-.634 3.493-1.239 8.614.719 12.294 2.58.249.125.448.331.566.584.117.252.146.537.081.808s-.219.512-.438.685c-.219.172-.489.266-.768.265z"/></g><path clip-rule="evenodd" d="m348.282 41.577c-.081-16.589 12.805-30.992 41.651-31.564s48.1 17.5 44.652 31.488c-4.5 18.253-35.837 23.379-35.327 42.635.077 2.929-19 2.665-19-.266-.439-19.18 37.624-28.448 38.2-42.727.5-12.518-9.722-19.3-28.364-19.3-12.952 0-23.838 6.672-24.792 19.589-.164 2.731-17 2.884-17.015.15z" fill="#e1b100" fill-rule="evenodd"/><path clip-rule="evenodd" d="m389.65 93.236c7.269 0 13.171 3.908 13.171 8.725s-5.9 8.722-13.171 8.722-13.169-3.908-13.169-8.722 5.9-8.725 13.169-8.725z" fill="#e1b100" fill-rule="evenodd"/></svg>