<svg fill="none" height="500" viewBox="0 0 500 500" width="500" xmlns="http://www.w3.org/2000/svg"><g clip-rule="evenodd" fill-rule="evenodd"><path d="m390.154 349.941c-.349-79.86-22.791-132.775-54.3-134.067-45.491-1.869-59.835 15.666-87.546 17.331-21.878 1.314-74.663-16.187-100.385-7.693s-42.152 55.336-39.308 110.95c1.965 38.414 30.743 34.591 31.013 53.85s1.652 87 1.652 87c72.738 16.372 143.2 17.009 211.289 1.292 0 0-1.85-73.447 6.276-89.551s31.4-18.522 31.306-39.11z" fill="#ed6d70"/><path d="m150.118 189.869c-37.714-23.74-70.685-99.2-28.964-125.077 5.983-24.482 43.246-55.172 79.951-54.792 48.785.507 71.993 46.059 98.6 51.1 5.765 32.1-17.786 75.644-33.762 89.975s-91.68 53.992-115.826 38.792z" fill="#6d4e3b"/><path d="m157.25 168.384c-29.968 9.205-8.991 45.33 14.781 24.488z" fill="#ffa775"/><path d="m262.3 123.057c26.1-17.36 40.773 21.752 9.589 26.946z" fill="#ffa775"/><path d="m154.509 93.671c.743 16.411-4 31.123-16.385 43.469 0 0 26.039 63.985 48.029 75.606 14.547 7.691 31.94 5.893 31.94 5.893 3.172 8.43-1.444 12.306-8.315 13.107 10.971 15.5 23.983 28.509 40.212 37.6 15.88-11.89 27.047-27.057 34.576-44.75-12.235-1.608-20.306-5.29-20.2-25.593 7.481-6.603 12.269-15.73 13.45-25.638 2.739-21.746-27.086-85.406-27.086-85.406-32.009 14.8-64.083 16.506-96.224 5.71z" fill="#ffa775"/></g><path d="m232 193.239c-.077 0-.153-.008-.228-.025-.134-.03-.26-.085-.372-.164s-.207-.178-.281-.294c-.073-.115-.123-.244-.146-.379-.024-.134-.021-.273.009-.406 1.629-7.308 5.6-12.714 10.354-14.109 3.189-.935 6.459.045 9.2 2.763.187.196.29.458.287.729-.002.271-.111.531-.302.723-.191.193-.449.303-.72.308-.272.005-.534-.096-.732-.281-2.211-2.191-4.682-2.965-7.148-2.244-4.03 1.182-7.442 6-8.906 12.564-.052.231-.18.437-.365.585-.184.149-.413.23-.65.23zm-19.01-17.845c-1.324.06-2.636-.271-3.774-.951-4.592-3.063-8.282-24.089-8.587-27.379-.013-.136.002-.274.042-.404.041-.131.106-.252.194-.357.087-.106.194-.193.315-.256.121-.064.254-.103.39-.116s.274.002.404.042c.131.041.252.106.357.194.106.087.193.194.256.315.064.121.103.254.116.39.48 5.175 4.442 23.686 7.668 25.838 2.842 1.895 10.257-1.063 12.875-2.361.122-.061.256-.097.392-.106.137-.01.273.008.403.052.13.043.249.112.352.202s.188.199.249.321c.06.123.096.256.106.393.009.136-.009.273-.052.402-.044.13-.113.25-.202.353-.09.103-.2.187-.322.248-.819.408-6.572 3.18-11.183 3.18z" fill="#29263b"/><path d="m162.146 143.237c-.468.001-.927-.13-1.325-.378-.397-.247-.717-.602-.923-1.022-3.8-7.768-3.345-15.286 1.161-19.153 3.71-3.187 9.029-2.931 14.224.679.528.385.885.961.994 1.605.108.644-.039 1.305-.412 1.842s-.941.906-1.582 1.029c-.642.123-1.306-.009-1.851-.37-3.209-2.231-6.245-2.6-8.118-.992-2.16 1.853-3.057 6.763.075 13.163.187.381.273.803.252 1.227-.022.424-.151.835-.375 1.195-.225.36-.537.657-.908.863s-.788.315-1.212.315zm69.454-24.472c-4.68-.058-9.164-1.886-12.551-5.116-.474-.451-.752-1.071-.775-1.725-.022-.655.213-1.292.656-1.774.442-.483 1.056-.773 1.71-.808.653-.035 1.295.188 1.786.621 4.8 4.4 12.566 5.905 19.085-.647.229-.242.505-.435.81-.569s.635-.206.968-.21c.333-.005.664.057.973.182s.59.31.826.545c.237.236.424.516.55.824.127.308.19.639.187.972-.003.334-.073.663-.206.969-.132.306-.324.582-.565.813-1.735 1.833-3.819 3.301-6.13 4.318-2.31 1.017-4.8 1.563-7.324 1.605z" fill="#29263b"/><path clip-rule="evenodd" d="m234.525 130.9c4.328-3.825 9.372-5.2 11.257-3.067s-.1 6.972-4.42 10.8-9.372 5.2-11.26 3.066.1-6.971 4.423-10.8z" fill="#29263b" fill-rule="evenodd"/><path clip-rule="evenodd" d="m179.85 153.813c5.665-1.124 10.715.23 11.27 3.024s-3.595 5.972-9.261 7.1-10.714-.23-11.269-3.022 3.595-5.974 9.26-7.1z" fill="#29263b" fill-rule="evenodd"/><path clip-rule="evenodd" d="m109.1 337.13c-2.215 30.854 7.061 82.652 33.894 90.832 31.919 9.728 96.126-32.58 96.126-32.58s70.78 40.241 111.007 34.918c36.281-4.8 40.172-78.8 40.172-78.8-14.082-5.718-28.733-6.173-46.577.338 0 0-9.393-39.369-36.318-40.13-27.422-.774-80.958 20.985-80.958 20.985-10.8-15.61-48.073-22.114-62.521-4.1 0 0-35.168-6.379-54.823 8.528z" fill="#ffa775" fill-rule="evenodd"/><path d="m239.853 396.165c-.225 0-.444-.073-.624-.208s-.312-.324-.375-.54c-.064-.216-.056-.447.023-.657.078-.211.223-.391.412-.513 2.268-1.456 55.629-35.7 63.123-38.561 7.536-2.875 39.911-5.187 41.286-5.284.136-.01.273.008.403.051s.25.112.353.201c.103.09.188.199.249.321s.097.256.107.392-.008.273-.051.403-.112.25-.201.353c-.09.103-.199.188-.321.249s-.256.097-.392.107c-.333.024-33.441 2.387-40.691 5.153-7.294 2.781-62.186 38.012-62.74 38.368-.167.107-.362.165-.561.165zm-68.146-13.3c-.388 0-.775-.025-1.159-.074-1.721-.179-3.331-.933-4.57-2.14-1.239-1.208-2.034-2.798-2.256-4.514-2.1-.294-7.122-1.552-9.063-6.9-1.51-4.152-3.164-16.122-1.459-21.582 1.54-4.933 3.686-8.715 6.655-13.951.906-1.6 1.893-3.335 2.967-5.292-2.865-18.93-3.5-34.457-3.5-34.613-.01-.276.089-.544.277-.747.187-.203.447-.323.723-.334.137-.009.275.011.405.057s.249.118.35.212c.101.093.182.206.238.332.057.126.087.261.089.399.006.156.641 15.763 3.532 34.729.035.226-.007.457-.117.657-1.145 2.093-2.192 3.94-3.15 5.628-2.906 5.122-5 8.823-6.479 13.544-1.414 4.527-.14 15.935 1.428 20.25.572 1.437 1.511 2.699 2.725 3.658 1.213.959 2.658 1.582 4.188 1.806.329-13.543 3.932-26.804 10.5-38.652.14-.233.366-.402.629-.471s.543-.033.779.102c.237.134.411.356.487.617.075.262.045.542-.084.782-6.39 11.244-10.3 25.9-10.233 38.347.069.134.107.282.112.432.008 1.395.533 2.738 1.474 3.768.941 1.031 2.23 1.675 3.619 1.809 3.1.408 6.881-1.316 8.318-6.063.021-.069.049-.137.084-.2.411-12.486 3.694-24.71 9.594-35.722.061-.125.147-.237.252-.329.105-.091.228-.161.36-.204.133-.043.273-.06.411-.048.139.012.275.051.398.116s.233.154.321.262c.088.107.154.232.194.366.039.133.051.274.036.412-.016.139-.06.273-.128.394-5.793 10.807-8.998 22.812-9.363 35.068-.003.133-.032.265-.085.387.4 2.676 1.776 4.236 3.982 4.52 3.494.447 7.85-2.379 9.317-6.064-.032-6.194 3.673-21.615 9.654-31.941.146-.223.372-.381.631-.442.26-.062.533-.021.763.112.231.134.401.351.477.606.075.256.05.531-.071.768-6.132 10.585-9.55 26.245-9.367 31.245v.056c.36 1.066 1.068 1.98 2.01 2.595s2.063.895 3.184.795c3.154-.072 7.354-2.467 8.809-8.985 4.293-19.245 12.164-31.6 15.348-36.012.161-.224.405-.375.678-.419.272-.045.551.021.776.183.224.161.374.405.419.677.044.273-.022.552-.183.776-3.11 4.313-10.8 16.38-15 35.248-1.718 7.693-6.889 10.526-10.8 10.614-1.251.067-2.499-.189-3.622-.744-1.124-.554-2.085-1.389-2.793-2.423-2.337 3.535-6.712 5.9-10.5 5.421-1.086-.12-2.122-.523-3.002-1.17s-1.575-1.515-2.013-2.516c-.824 1.449-2.016 2.656-3.454 3.499-1.439.842-3.075 1.291-4.742 1.3z" fill="#29263b"/><path d="m213.641 294.479c-.192 0-.381-.054-.544-.154-.164-.101-.297-.245-.384-.416-10.256-20.148-14.266-40.583-12.618-64.308.006-.139.039-.276.098-.402.06-.127.144-.24.248-.333s.225-.164.357-.209c.132-.046.272-.064.411-.054.139.009.275.047.399.11s.235.151.325.257c.09.107.157.231.199.364.041.133.055.273.041.412-1.614 23.253 2.055 42.493 11.886 62.206l35.412-21.963c.136-.085.291-.138.451-.153s.322.008.472.066l38.547 14.833c6.769-22.524 8.043-40.9 4.273-61.251-.046-.27.017-.547.173-.771.157-.224.396-.378.665-.427.269-.05.547.008.773.161.227.153.384.39.438.658 3.893 21.021 2.5 39.955-4.655 63.309-.042.137-.111.263-.204.372-.093.108-.208.197-.336.259-.129.063-.268.098-.411.104-.143.007-.286-.017-.419-.068l-39.109-15.049-35.94 22.29c-.164.102-.354.157-.548.157z" fill="#29263b"/><path clip-rule="evenodd" d="m218.907 225.421c18.144-8.728 36.841-11.4 50.391-7.25-3.184-3.7-4.981-9.562-4.929-19.166-11.294 10.374-30.013 18.561-46.276 19.634.928 2.133 1.211 4.49.814 6.782z" fill="#f08855" fill-rule="evenodd"/><path d="m325.17 317.634h-.045c-.137-.005-.272-.038-.396-.095-.125-.057-.237-.139-.329-.24-.093-.101-.165-.219-.213-.347-.047-.129-.068-.266-.062-.403.449-9.216-.01-18.455-1.371-27.581-.022-.135-.016-.273.015-.406.032-.133.09-.258.17-.369s.181-.205.298-.276c.116-.072.245-.12.38-.141.135-.022.273-.017.406.015.133.031.259.089.37.169.11.08.204.182.276.298.071.117.119.246.141.381 1.384 9.265 1.851 18.644 1.395 28-.012.267-.126.519-.318.705-.193.185-.45.289-.717.29z" fill="#29263b"/><path clip-rule="evenodd" d="m325.318 54.479c-.068-13.957 10.774-26.074 35.042-26.555s40.466 14.72 37.566 26.491c-3.783 15.357-30.15 19.669-29.721 35.87.065 2.464-15.988 2.242-15.988-.224-.369-16.137 31.653-23.934 32.137-35.947.423-10.532-8.179-16.242-23.863-16.242-10.9 0-20.055 5.614-20.858 16.481-.137 2.3-14.3 2.426-14.315.126z" fill="#e1b100" fill-rule="evenodd"/><path clip-rule="evenodd" d="m360.122 97.94c6.116 0 11.081 3.288 11.081 7.34s-4.965 7.339-11.081 7.339-11.08-3.288-11.08-7.339 4.966-7.34 11.08-7.34z" fill="#e1b100" fill-rule="evenodd"/></svg>