<svg xmlns="http://www.w3.org/2000/svg" xmlns:xlink="http://www.w3.org/1999/xlink" width="200" height="75" viewBox="0 0 200 200" version="1.1"><g id="surface1"><path style=" stroke:none;fill-rule:nonzero;fill:rgb(51.764706%,68.627451%,96.470588%);fill-opacity:1;" d="M 72.066406 89.105469 C 72.917969 89.101562 73.769531 89.085938 74.625 89.074219 C 75.171875 89.074219 75.722656 89.070312 76.269531 89.070312 C 76.765625 89.066406 77.257812 89.0625 77.769531 89.058594 C 79.695312 89.25 81.335938 89.742188 82.746094 91.140625 C 84.339844 94.15625 84.085938 98.214844 84.125 101.550781 C 84.132812 101.90625 84.140625 102.261719 84.144531 102.628906 C 84.144531 105.296875 83.765625 107.253906 82 109.351562 C 80.453125 110.609375 78.804688 110.476562 76.90625 110.496094 C 76.601562 110.5 76.296875 110.5 75.984375 110.503906 C 75.34375 110.511719 74.703125 110.515625 74.058594 110.519531 C 73.40625 110.523438 72.75 110.53125 72.097656 110.542969 C 71.148438 110.558594 70.203125 110.566406 69.253906 110.570312 C 68.964844 110.578125 68.675781 110.585938 68.375 110.589844 C 66.324219 110.582031 65.171875 110.097656 63.601562 108.800781 C 62 106.367188 62.214844 103.675781 62.242188 100.835938 C 62.25 100.027344 62.242188 99.21875 62.234375 98.410156 C 62.253906 92.144531 62.253906 92.144531 64.375 90.023438 C 66.75 88.800781 69.460938 89.109375 72.066406 89.105469 Z M 72.066406 89.105469 " /><path style=" stroke:none;fill-rule:nonzero;fill:rgb(20.392157%,45.098039%,82.745098%);fill-opacity:1;" d="M 83.199219 93.199219 C 83.332031 93.199219 83.464844 93.199219 83.601562 93.199219 C 83.921875 95.960938 84.082031 98.695312 84.101562 101.476562 C 84.109375 101.835938 84.117188 102.191406 84.125 102.5625 C 84.140625 105.265625 83.789062 107.222656 82 109.351562 C 80.453125 110.609375 78.804688 110.476562 76.90625 110.496094 C 76.601562 110.5 76.296875 110.5 75.984375 110.503906 C 75.34375 110.511719 74.703125 110.515625 74.058594 110.519531 C 73.40625 110.523438 72.75 110.53125 72.097656 110.542969 C 71.148438 110.558594 70.203125 110.566406 69.253906 110.570312 C 68.964844 110.578125 68.675781 110.585938 68.375 110.589844 C 66.320312 110.582031 65.128906 110.175781 63.601562 108.800781 C 62.507812 106.863281 62.253906 105.304688 62.28125 103.101562 C 62.285156 102.839844 62.285156 102.578125 62.289062 102.304688 C 62.292969 101.480469 62.308594 100.652344 62.324219 99.824219 C 62.332031 99.257812 62.335938 98.695312 62.339844 98.128906 C 62.355469 96.753906 62.375 95.375 62.398438 94 C 62.53125 94 62.664062 94 62.800781 94 C 62.820312 94.363281 62.839844 94.722656 62.859375 95.09375 C 62.890625 95.566406 62.917969 96.039062 62.949219 96.523438 C 62.976562 96.992188 63.003906 97.460938 63.035156 97.945312 C 63.113281 99.261719 63.113281 99.261719 64 100.398438 C 64.265625 100.003906 64.527344 99.609375 64.800781 99.199219 C 65.0625 99.199219 65.328125 99.199219 65.601562 99.199219 C 65.601562 98.40625 65.601562 97.617188 65.601562 96.800781 C 65.730469 96.800781 65.863281 96.800781 66 96.800781 C 66.03125 97.292969 66.03125 97.292969 66.058594 97.792969 C 66.089844 98.226562 66.121094 98.65625 66.148438 99.101562 C 66.179688 99.527344 66.207031 99.953125 66.234375 100.394531 C 66.351562 101.714844 66.351562 101.714844 67.199219 103.199219 C 70.105469 103.332031 73.007812 103.464844 76 103.601562 C 76 102.808594 76 102.015625 76 101.199219 C 77.167969 101.722656 77.902344 102.300781 78.800781 103.199219 C 79.195312 103.332031 79.59375 103.464844 80 103.601562 C 80 101.09375 80 98.585938 80 96 C 80.394531 96.132812 80.792969 96.265625 81.199219 96.398438 C 81.34375 97.058594 81.484375 97.714844 81.625 98.375 C 81.742188 98.925781 81.742188 98.925781 81.863281 99.484375 C 81.910156 99.789062 81.953125 100.089844 82 100.398438 C 81.800781 100.597656 81.800781 100.597656 81.601562 100.800781 C 81.582031 101.464844 81.582031 102.132812 81.601562 102.800781 C 82.625 101.613281 82.953125 100.855469 83.003906 99.292969 C 83.019531 98.9375 83.03125 98.582031 83.046875 98.214844 C 83.058594 97.847656 83.066406 97.480469 83.074219 97.101562 C 83.089844 96.726562 83.101562 96.351562 83.117188 95.964844 C 83.148438 95.042969 83.175781 94.121094 83.199219 93.199219 Z M 83.199219 93.199219 " /><path style=" stroke:none;fill-rule:nonzero;fill:rgb(87.843137%,87.843137%,87.843137%);fill-opacity:1;" d="M 115.625 94.351562 C 116.398438 95.199219 116.398438 95.199219 116.800781 96.398438 C 115.351562 97.601562 115.351562 97.601562 114 97.601562 C 113.867188 97.335938 113.734375 97.070312 113.601562 96.800781 C 112.808594 96.550781 112.808594 96.550781 111.875 96.449219 C 111.5625 96.402344 111.25 96.351562 110.929688 96.304688 C 109.945312 96.328125 109.945312 96.328125 109.09375 97.035156 C 108.195312 98.285156 108.1875 99.066406 108.199219 100.601562 C 108.195312 101.050781 108.191406 101.5 108.1875 101.960938 C 108.308594 103.226562 108.308594 103.226562 109.105469 104.167969 C 109.933594 104.867188 109.933594 104.867188 110.855469 104.867188 C 111.132812 104.8125 111.414062 104.757812 111.699219 104.699219 C 112.195312 104.601562 112.691406 104.503906 113.199219 104.398438 C 113.332031 103.609375 113.464844 102.816406 113.601562 102 C 112.675781 102 111.753906 102 110.800781 102 C 110.800781 101.207031 110.800781 100.414062 110.800781 99.601562 C 112.78125 99.601562 114.761719 99.601562 116.800781 99.601562 C 116.800781 102.238281 116.800781 104.878906 116.800781 107.601562 C 115.875 107.601562 114.953125 107.601562 114 107.601562 C 113.867188 107.335938 113.734375 107.070312 113.601562 106.800781 C 113.203125 107.0625 112.808594 107.328125 112.398438 107.601562 C 110.433594 107.890625 108.828125 107.800781 107.023438 106.949219 C 105.539062 105.574219 104.886719 104.269531 104.625 102.253906 C 104.621094 96.996094 104.621094 96.996094 106.398438 94.800781 C 109 92.734375 112.8125 92.628906 115.625 94.351562 Z M 115.625 94.351562 " /><path style=" stroke:none;fill-rule:nonzero;fill:rgb(88.235294%,88.235294%,88.235294%);fill-opacity:1;" d="M 129.75 94.25 C 131.4375 95.777344 131.914062 97.035156 132.113281 99.238281 C 132.183594 101.757812 132.207031 103.867188 130.800781 106 C 128.757812 107.695312 126.945312 107.851562 124.324219 107.753906 C 122.234375 107.46875 121.242188 106.488281 119.875 104.976562 C 118.707031 102.59375 118.40625 100 119.25 97.449219 C 120.148438 95.476562 121.289062 94.300781 123.300781 93.449219 C 125.691406 93.050781 127.554688 93.191406 129.75 94.25 Z M 122.398438 98 C 121.855469 99.789062 121.808594 101.417969 122.476562 103.175781 C 123.097656 104.382812 123.097656 104.382812 123.925781 105 C 125.160156 105.28125 125.984375 105.152344 127.199219 104.800781 C 128.363281 103.90625 128.757812 103.433594 129.027344 101.976562 C 129.0625 99.175781 129.0625 99.175781 127.949219 96.675781 C 125.535156 95.257812 124.003906 95.753906 122.398438 98 Z M 122.398438 98 " /><path style=" stroke:none;fill-rule:nonzero;fill:rgb(87.45098%,87.45098%,87.45098%);fill-opacity:1;" d="M 134.800781 93.601562 C 136.085938 93.566406 137.375 93.535156 138.699219 93.5 C 139.304688 93.476562 139.304688 93.476562 139.921875 93.457031 C 142.558594 93.421875 142.558594 93.421875 143.832031 94.355469 C 144.875 95.902344 144.929688 96.921875 144.800781 98.800781 C 144.25 99.773438 144.25 99.773438 143.601562 100.398438 C 143.335938 100.398438 143.070312 100.398438 142.800781 100.398438 C 142.980469 100.613281 143.160156 100.828125 143.34375 101.046875 C 144.101562 102.148438 144.46875 103.179688 144.875 104.449219 C 145.011719 104.871094 145.148438 105.292969 145.292969 105.726562 C 145.601562 106.800781 145.601562 106.800781 145.601562 107.601562 C 144.542969 107.601562 143.488281 107.601562 142.398438 107.601562 C 142.226562 107.042969 142.226562 107.042969 142.046875 106.476562 C 141.882812 105.996094 141.71875 105.519531 141.550781 105.023438 C 141.390625 104.546875 141.234375 104.070312 141.070312 103.578125 C 140.507812 102.269531 140.507812 102.269531 139.128906 102.035156 C 138.753906 102.023438 138.382812 102.011719 138 102 C 138.003906 102.371094 138.007812 102.742188 138.015625 103.125 C 138.019531 103.601562 138.019531 104.082031 138.023438 104.574219 C 138.03125 105.054688 138.035156 105.53125 138.039062 106.023438 C 138 107.199219 138 107.199219 137.601562 107.601562 C 136.675781 107.601562 135.753906 107.601562 134.800781 107.601562 C 134.800781 102.980469 134.800781 98.359375 134.800781 93.601562 Z M 137.601562 96 C 137.601562 97.054688 137.601562 98.113281 137.601562 99.199219 C 138.789062 99.199219 139.976562 99.199219 141.199219 99.199219 C 141.679688 98.269531 141.679688 98.269531 142 97.199219 C 141.734375 96.804688 141.472656 96.40625 141.199219 96 C 140.316406 95.855469 140.316406 95.855469 139.351562 95.925781 C 139.023438 95.9375 138.695312 95.945312 138.359375 95.957031 C 137.984375 95.980469 137.984375 95.980469 137.601562 96 Z M 137.601562 96 " /><path style=" stroke:none;fill-rule:nonzero;fill:rgb(86.666667%,86.666667%,86.666667%);fill-opacity:1;" d="M 150.800781 93.601562 C 151.988281 93.601562 153.175781 93.601562 154.398438 93.601562 C 155.707031 96.402344 156.734375 99.238281 157.699219 102.175781 C 157.84375 102.609375 157.992188 103.042969 158.140625 103.492188 C 159.199219 106.691406 159.199219 106.691406 159.199219 107.601562 C 158.144531 107.601562 157.089844 107.601562 156 107.601562 C 155.734375 106.542969 155.472656 105.488281 155.199219 104.398438 C 153.484375 104.398438 151.769531 104.398438 150 104.398438 C 149.734375 105.457031 149.472656 106.511719 149.199219 107.601562 C 148.144531 107.601562 147.089844 107.601562 146 107.601562 C 146.261719 105.605469 146.820312 103.832031 147.5 101.949219 C 147.605469 101.652344 147.710938 101.359375 147.820312 101.050781 C 148.730469 98.53125 149.730469 96.058594 150.800781 93.601562 Z M 152.398438 96.800781 C 152.199219 97.449219 152 98.101562 151.800781 98.75 C 151.6875 99.113281 151.578125 99.472656 151.460938 99.847656 C 151.164062 100.765625 151.164062 100.765625 151.199219 101.601562 C 152.125 101.601562 153.046875 101.601562 154 101.601562 C 153.886719 101.023438 153.769531 100.449219 153.648438 99.875 C 153.550781 99.394531 153.550781 99.394531 153.453125 98.90625 C 153.222656 97.898438 153.222656 97.898438 152.398438 96.800781 Z M 152.398438 96.800781 " /><path style=" stroke:none;fill-rule:nonzero;fill:rgb(87.058824%,87.058824%,87.058824%);fill-opacity:1;" d="M 96.027344 93.5625 C 97.414062 93.582031 97.414062 93.582031 98.800781 93.601562 C 99.964844 96.117188 100.964844 98.65625 101.875 101.273438 C 101.996094 101.621094 102.121094 101.964844 102.246094 102.320312 C 102.863281 104.078125 103.371094 105.746094 103.601562 107.601562 C 102.542969 107.601562 101.488281 107.601562 100.398438 107.601562 C 100.136719 106.542969 99.871094 105.488281 99.601562 104.398438 C 97.882812 104.398438 96.167969 104.398438 94.398438 104.398438 C 94.136719 105.457031 93.871094 106.511719 93.601562 107.601562 C 92.542969 107.601562 91.488281 107.601562 90.398438 107.601562 C 91.210938 104.460938 92.175781 101.40625 93.25 98.351562 C 93.394531 97.933594 93.539062 97.519531 93.6875 97.089844 C 94.902344 93.613281 94.902344 93.613281 96.027344 93.5625 Z M 96.800781 96.800781 C 96.402344 98.382812 96.007812 99.96875 95.601562 101.601562 C 96.523438 101.601562 97.449219 101.601562 98.398438 101.601562 C 98.195312 99.871094 97.921875 98.386719 97.199219 96.800781 C 97.066406 96.800781 96.9375 96.800781 96.800781 96.800781 Z M 96.800781 96.800781 " /><path style=" stroke:none;fill-rule:nonzero;fill:rgb(14.117647%,50.588235%,96.862745%);fill-opacity:1;" d="M 80.398438 103.601562 C 80.796875 103.730469 81.191406 103.863281 81.601562 104 C 81.601562 104.265625 81.601562 104.527344 81.601562 104.800781 C 81.996094 104.667969 82.390625 104.535156 82.800781 104.398438 C 82.898438 104.972656 82.988281 105.550781 83.074219 106.125 C 83.125 106.445312 83.175781 106.765625 83.230469 107.09375 C 83.199219 108 83.199219 108 82.734375 108.691406 C 81.300781 109.683594 79.613281 109.652344 77.917969 109.652344 C 77.527344 109.652344 77.132812 109.652344 76.730469 109.65625 C 76.121094 109.652344 76.121094 109.652344 75.5 109.648438 C 74.902344 109.652344 74.902344 109.652344 74.289062 109.65625 C 70.808594 109.648438 67.328125 109.507812 64 108.398438 C 63.550781 105.75 63.550781 105.75 64 104.398438 C 64.59375 104.457031 65.183594 104.515625 65.773438 104.574219 C 66.269531 104.625 66.269531 104.625 66.773438 104.671875 C 67.601562 104.800781 67.601562 104.800781 68 105.199219 C 68.570312 105.238281 69.144531 105.253906 69.71875 105.253906 C 70.070312 105.253906 70.421875 105.253906 70.78125 105.253906 C 71.152344 105.253906 71.519531 105.25 71.898438 105.25 C 72.261719 105.25 72.625 105.253906 73 105.253906 C 73.351562 105.253906 73.707031 105.253906 74.070312 105.253906 C 74.390625 105.253906 74.714844 105.253906 75.046875 105.25 C 76.0625 105.195312 77.003906 105.007812 78 104.800781 C 78.667969 104.785156 79.332031 104.78125 80 104.800781 C 80.132812 104.402344 80.265625 104.007812 80.398438 103.601562 Z M 80.398438 103.601562 " /><path style=" stroke:none;fill-rule:nonzero;fill:rgb(88.627451%,91.372549%,98.431373%);fill-opacity:1;" d="M 66.398438 96 C 67.707031 95.988281 69.015625 95.980469 70.324219 95.976562 C 70.695312 95.972656 71.066406 95.96875 71.449219 95.964844 C 71.808594 95.964844 72.164062 95.960938 72.53125 95.960938 C 73.027344 95.957031 73.027344 95.957031 73.53125 95.953125 C 74.398438 96 74.398438 96 75.601562 96.398438 C 76.238281 97.675781 76.039062 99.050781 76.023438 100.449219 C 76.023438 100.75 76.019531 101.054688 76.019531 101.363281 C 76.015625 102.109375 76.007812 102.855469 76 103.601562 C 74.550781 103.625 73.101562 103.636719 71.648438 103.648438 C 71.238281 103.65625 70.824219 103.664062 70.398438 103.671875 C 70.003906 103.671875 69.609375 103.675781 69.203125 103.679688 C 68.65625 103.683594 68.65625 103.683594 68.097656 103.691406 C 67.199219 103.601562 67.199219 103.601562 66.398438 102.800781 C 66.34375 101.636719 66.324219 100.511719 66.351562 99.351562 C 66.355469 99.027344 66.355469 98.707031 66.359375 98.378906 C 66.371094 97.585938 66.382812 96.792969 66.398438 96 Z M 66.398438 96 " /><path style=" stroke:none;fill-rule:nonzero;fill:rgb(14.117647%,35.294118%,64.705882%);fill-opacity:1;" d="M 62.398438 94 C 62.53125 94 62.664062 94 62.800781 94 C 62.820312 94.363281 62.839844 94.722656 62.859375 95.09375 C 62.890625 95.566406 62.917969 96.039062 62.949219 96.523438 C 62.976562 96.992188 63.003906 97.460938 63.035156 97.945312 C 63.113281 99.261719 63.113281 99.261719 64 100.398438 C 64.394531 100.003906 64.792969 99.609375 65.199219 99.199219 C 65.21875 99.46875 65.238281 99.742188 65.257812 100.019531 C 65.289062 100.375 65.320312 100.730469 65.351562 101.101562 C 65.378906 101.453125 65.40625 101.804688 65.433594 102.167969 C 65.597656 103.195312 65.882812 103.902344 66.398438 104.800781 C 65.609375 104.667969 64.816406 104.535156 64 104.398438 C 64 105.71875 64 107.039062 64 108.398438 C 65.597656 108.605469 65.597656 108.605469 67.199219 108.800781 C 67.714844 108.871094 68.230469 108.941406 68.761719 109.011719 C 71.3125 109.292969 73.863281 109.242188 76.425781 109.226562 C 76.925781 109.222656 77.421875 109.222656 77.9375 109.21875 C 79.15625 109.214844 80.378906 109.207031 81.601562 109.199219 C 81.402344 109.597656 81.402344 109.597656 81.199219 110 C 79.753906 110.480469 78.414062 110.480469 76.90625 110.496094 C 76.601562 110.5 76.296875 110.5 75.984375 110.503906 C 75.34375 110.511719 74.703125 110.515625 74.058594 110.519531 C 73.40625 110.523438 72.75 110.53125 72.097656 110.542969 C 71.148438 110.558594 70.203125 110.566406 69.253906 110.570312 C 68.964844 110.578125 68.675781 110.585938 68.375 110.589844 C 66.320312 110.582031 65.128906 110.175781 63.601562 108.800781 C 62.507812 106.863281 62.253906 105.304688 62.28125 103.101562 C 62.285156 102.839844 62.285156 102.578125 62.289062 102.304688 C 62.292969 101.480469 62.308594 100.652344 62.324219 99.824219 C 62.332031 99.257812 62.335938 98.695312 62.339844 98.128906 C 62.355469 96.753906 62.375 95.375 62.398438 94 Z M 62.398438 94 " /><path style=" stroke:none;fill-rule:nonzero;fill:rgb(22.352941%,35.686275%,55.294118%);fill-opacity:1;" d="M 83.199219 93.199219 C 83.332031 93.199219 83.464844 93.199219 83.601562 93.199219 C 83.929688 95.988281 84.074219 98.742188 84.074219 101.550781 C 84.078125 101.917969 84.085938 102.289062 84.089844 102.667969 C 84.089844 103.203125 84.089844 103.203125 84.09375 103.746094 C 84.09375 104.066406 84.09375 104.382812 84.097656 104.710938 C 83.988281 105.695312 83.691406 106.347656 83.199219 107.199219 C 83.066406 107.199219 82.9375 107.199219 82.800781 107.199219 C 82.667969 106.40625 82.535156 105.617188 82.398438 104.800781 C 82.136719 104.800781 81.871094 104.800781 81.601562 104.800781 C 81.601562 104.535156 81.601562 104.273438 81.601562 104 C 81.335938 104 81.070312 104 80.800781 104 C 80.535156 101.359375 80.273438 98.71875 80 96 C 80.394531 96.132812 80.792969 96.265625 81.199219 96.398438 C 81.34375 97.058594 81.484375 97.714844 81.625 98.375 C 81.703125 98.742188 81.78125 99.109375 81.863281 99.484375 C 81.910156 99.789062 81.953125 100.089844 82 100.398438 C 81.867188 100.53125 81.734375 100.664062 81.601562 100.800781 C 81.582031 101.464844 81.582031 102.132812 81.601562 102.800781 C 82.625 101.613281 82.953125 100.855469 83.003906 99.292969 C 83.027344 98.761719 83.027344 98.761719 83.046875 98.214844 C 83.058594 97.847656 83.066406 97.480469 83.074219 97.101562 C 83.089844 96.726562 83.101562 96.351562 83.117188 95.964844 C 83.148438 95.042969 83.175781 94.121094 83.199219 93.199219 Z M 83.199219 93.199219 " /><path style=" stroke:none;fill-rule:nonzero;fill:rgb(90.980392%,93.333333%,98.823529%);fill-opacity:1;" d="M 78.800781 96 C 79.195312 96.132812 79.59375 96.265625 80 96.398438 C 80 98.777344 80 101.152344 80 103.601562 C 78.285156 103.171875 77.792969 103.019531 76.800781 101.601562 C 76.546875 100.351562 76.53125 99.246094 76.800781 98 C 77.800781 96.773438 77.800781 96.773438 78.800781 96 Z M 78.800781 96 " /><path style=" stroke:none;fill-rule:nonzero;fill:rgb(7.843137%,38.039216%,74.117647%);fill-opacity:1;" d="M 63.601562 107.199219 C 63.730469 107.597656 63.863281 107.992188 64 108.398438 C 65.597656 108.605469 65.597656 108.605469 67.199219 108.800781 C 67.972656 108.90625 67.972656 108.90625 68.761719 109.011719 C 71.3125 109.292969 73.863281 109.242188 76.425781 109.226562 C 76.925781 109.222656 77.421875 109.222656 77.9375 109.21875 C 79.15625 109.214844 80.378906 109.207031 81.601562 109.199219 C 81.46875 109.464844 81.335938 109.726562 81.199219 110 C 79.753906 110.480469 78.414062 110.480469 76.90625 110.496094 C 76.601562 110.5 76.296875 110.5 75.984375 110.503906 C 75.34375 110.511719 74.703125 110.515625 74.058594 110.519531 C 73.40625 110.523438 72.75 110.53125 72.097656 110.542969 C 71.148438 110.558594 70.203125 110.566406 69.253906 110.570312 C 68.964844 110.578125 68.675781 110.585938 68.375 110.589844 C 66.34375 110.582031 65.121094 110.15625 63.601562 108.800781 C 63.601562 108.273438 63.601562 107.742188 63.601562 107.199219 Z M 63.601562 107.199219 " /><path style=" stroke:none;fill-rule:nonzero;fill:rgb(18.039216%,33.333333%,61.568627%);fill-opacity:1;" d="M 76 101.199219 C 77.164062 101.722656 77.921875 102.28125 78.800781 103.199219 C 79.195312 103.464844 79.59375 103.726562 80 104 C 79.21875 103.871094 78.4375 103.738281 77.65625 103.609375 C 76.785156 103.53125 76.785156 103.53125 76.054688 103.992188 C 74.570312 104.699219 73.019531 104.53125 71.398438 104.523438 C 70.886719 104.535156 70.886719 104.535156 70.363281 104.542969 C 67.851562 104.546875 67.851562 104.546875 66.5625 103.792969 C 66.375 103.597656 66.191406 103.402344 66 103.199219 C 66.132812 102.9375 66.265625 102.671875 66.398438 102.398438 C 66.664062 102.664062 66.929688 102.929688 67.199219 103.199219 C 68.128906 103.347656 68.128906 103.347656 69.203125 103.367188 C 69.597656 103.382812 69.992188 103.398438 70.398438 103.414062 C 70.8125 103.425781 71.222656 103.4375 71.648438 103.449219 C 72.066406 103.464844 72.480469 103.480469 72.910156 103.496094 C 73.941406 103.535156 74.96875 103.570312 76 103.601562 C 76 102.808594 76 102.015625 76 101.199219 Z M 76 101.199219 " /><path style=" stroke:none;fill-rule:nonzero;fill:rgb(40.784314%,62.352941%,95.294118%);fill-opacity:1;" d="M 63.199219 95.199219 C 63.332031 95.464844 63.464844 95.726562 63.601562 96 C 64.390625 96 65.183594 96 66 96 C 65.867188 97.054688 65.734375 98.113281 65.601562 99.199219 C 65.335938 99.199219 65.070312 99.199219 64.800781 99.199219 C 64.535156 99.726562 64.273438 100.257812 64 100.800781 C 63.867188 100.667969 63.734375 100.535156 63.601562 100.398438 C 63.335938 100.664062 63.070312 100.929688 62.800781 101.199219 C 62.765625 99.140625 62.859375 97.230469 63.199219 95.199219 Z M 63.199219 95.199219 " /><path style=" stroke:none;fill-rule:nonzero;fill:rgb(45.882353%,52.54902%,67.45098%);fill-opacity:1;" d="M 66.800781 89.199219 C 70.890625 89.199219 74.984375 89.199219 79.199219 89.199219 C 79.199219 89.597656 79.199219 89.992188 79.199219 90.398438 C 74.976562 90.398438 70.753906 90.398438 66.398438 90.398438 C 66.53125 90.003906 66.664062 89.609375 66.800781 89.199219 Z M 66.800781 89.199219 " /><path style=" stroke:none;fill-rule:nonzero;fill:rgb(73.72549%,80.784314%,95.686275%);fill-opacity:1;" d="M 76.800781 100 C 76.933594 100.265625 77.0625 100.527344 77.199219 100.800781 C 78.210938 101.0625 78.210938 101.0625 79.199219 101.199219 C 79.464844 100.804688 79.726562 100.40625 80 100 C 80 101.1875 80 102.375 80 103.601562 C 78.320312 103.179688 77.851562 102.914062 76.800781 101.601562 C 76.800781 101.070312 76.800781 100.542969 76.800781 100 Z M 76.800781 100 " /><path style=" stroke:none;fill-rule:nonzero;fill:rgb(27.843137%,48.235294%,80%);fill-opacity:1;" d="M 65.601562 96.800781 C 65.730469 96.800781 65.863281 96.800781 66 96.800781 C 66.03125 97.464844 66.03125 97.464844 66.058594 98.144531 C 66.089844 98.730469 66.121094 99.316406 66.148438 99.898438 C 66.167969 100.335938 66.167969 100.335938 66.1875 100.785156 C 66.269531 102.296875 66.367188 103.511719 67.199219 104.800781 C 65.648438 104.101562 65.648438 104.101562 65.199219 103.199219 C 65.066406 101.039062 65.152344 98.921875 65.601562 96.800781 Z M 65.601562 96.800781 " /><path style=" stroke:none;fill-rule:nonzero;fill:rgb(25.882353%,54.901961%,92.941176%);fill-opacity:1;" d="M 82.800781 101.199219 C 82.933594 101.199219 83.0625 101.199219 83.199219 101.199219 C 83.199219 103.179688 83.199219 105.160156 83.199219 107.199219 C 83.066406 107.199219 82.9375 107.199219 82.800781 107.199219 C 82.667969 106.40625 82.535156 105.617188 82.398438 104.800781 C 82.136719 104.800781 81.871094 104.800781 81.601562 104.800781 C 81.601562 104.535156 81.601562 104.273438 81.601562 104 C 81.335938 104 81.070312 104 80.800781 104 C 80.933594 103.605469 81.0625 103.207031 81.199219 102.800781 C 81.464844 102.800781 81.726562 102.800781 82 102.800781 C 82.265625 102.273438 82.527344 101.742188 82.800781 101.199219 Z M 82.800781 101.199219 " /><path style=" stroke:none;fill-rule:nonzero;fill:rgb(94.117647%,98.431373%,100%);fill-opacity:1;" d="M 66.398438 96 C 67.714844 95.988281 69.035156 95.980469 70.351562 95.976562 C 70.726562 95.972656 71.101562 95.96875 71.484375 95.964844 C 72.023438 95.964844 72.023438 95.964844 72.570312 95.960938 C 73.066406 95.957031 73.066406 95.957031 73.574219 95.953125 C 74.398438 96 74.398438 96 75.199219 96.398438 C 75.199219 97.058594 75.199219 97.71875 75.199219 98.398438 C 74.9375 98.269531 74.671875 98.136719 74.398438 98 C 74.398438 97.734375 74.398438 97.472656 74.398438 97.199219 C 72.59375 96.847656 70.890625 96.757812 69.050781 96.773438 C 68.550781 96.777344 68.054688 96.78125 67.539062 96.785156 C 67.164062 96.789062 66.789062 96.796875 66.398438 96.800781 C 66.398438 96.535156 66.398438 96.273438 66.398438 96 Z M 66.398438 96 " /><path style=" stroke:none;fill-rule:nonzero;fill:rgb(32.941176%,57.647059%,91.764706%);fill-opacity:1;" d="M 63.199219 99.199219 C 63.464844 99.597656 63.726562 99.992188 64 100.398438 C 64.394531 100.003906 64.792969 99.609375 65.199219 99.199219 C 65.074219 100.351562 65.074219 100.351562 64.800781 101.601562 C 64.402344 101.863281 64.007812 102.128906 63.601562 102.398438 C 63.367188 103.183594 63.367188 103.183594 63.324219 104.050781 C 63.285156 104.5625 63.242188 105.074219 63.199219 105.601562 C 63.066406 105.601562 62.9375 105.601562 62.800781 105.601562 C 62.789062 104.910156 62.78125 104.214844 62.773438 103.523438 C 62.769531 103.140625 62.765625 102.753906 62.761719 102.359375 C 62.796875 101.257812 62.953125 100.269531 63.199219 99.199219 Z M 63.199219 99.199219 " /><path style=" stroke:none;fill-rule:nonzero;fill:rgb(52.941176%,63.921569%,83.529412%);fill-opacity:1;" d="M 66.398438 89.601562 C 66.398438 90.390625 66.398438 91.183594 66.398438 92 C 65.609375 92 64.816406 92 64 92 C 63.867188 92.265625 63.734375 92.527344 63.601562 92.800781 C 63.726562 91.648438 63.726562 91.648438 64 90.398438 C 65.199219 89.601562 65.199219 89.601562 66.398438 89.601562 Z M 66.398438 89.601562 " /><path style=" stroke:none;fill-rule:nonzero;fill:rgb(21.960784%,37.647059%,67.058824%);fill-opacity:1;" d="M 76 101.199219 C 77.164062 101.722656 77.921875 102.28125 78.800781 103.199219 C 79.195312 103.464844 79.59375 103.726562 80 104 C 79.191406 103.882812 78.386719 103.765625 77.578125 103.648438 C 76.765625 103.53125 76.765625 103.53125 76 104 C 76 103.074219 76 102.152344 76 101.199219 Z M 76 101.199219 " /><path style=" stroke:none;fill-rule:nonzero;fill:rgb(74.901961%,82.745098%,98.431373%);fill-opacity:1;" d="M 75.601562 100 C 75.730469 100 75.863281 100 76 100 C 76 101.1875 76 102.375 76 103.601562 C 74.414062 103.601562 72.832031 103.601562 71.199219 103.601562 C 71.332031 103.335938 71.464844 103.070312 71.601562 102.800781 C 72.660156 102.5625 73.714844 102.503906 74.800781 102.398438 C 75.0625 101.609375 75.328125 100.816406 75.601562 100 Z M 75.601562 100 " /><path style=" stroke:none;fill-rule:nonzero;fill:rgb(86.27451%,89.803922%,99.215686%);fill-opacity:1;" d="M 79.601562 98.398438 C 79.972656 99.441406 80.058594 99.855469 79.625 100.898438 C 79.414062 101.246094 79.414062 101.246094 79.199219 101.601562 C 78.210938 101.203125 78.210938 101.203125 77.199219 100.800781 C 77.332031 100.402344 77.464844 100.007812 77.601562 99.601562 C 78.128906 99.449219 78.664062 99.316406 79.199219 99.199219 C 79.332031 98.9375 79.464844 98.671875 79.601562 98.398438 Z M 79.601562 98.398438 " /><path style=" stroke:none;fill-rule:nonzero;fill:rgb(11.372549%,38.039216%,70.588235%);fill-opacity:1;" d="M 63.601562 107.199219 C 63.730469 107.597656 63.863281 107.992188 64 108.398438 C 64.53125 108.542969 65.066406 108.675781 65.601562 108.800781 C 66.300781 109.425781 66.300781 109.425781 66.800781 110 C 64.585938 109.753906 64.585938 109.753906 63.648438 108.976562 C 63.5 108.785156 63.351562 108.59375 63.199219 108.398438 C 63.332031 108.003906 63.464844 107.609375 63.601562 107.199219 Z M 63.601562 107.199219 " /><path style=" stroke:none;fill-rule:nonzero;fill:rgb(73.333333%,81.176471%,97.647059%);fill-opacity:1;" d="M 66.398438 102.398438 C 66.714844 102.472656 67.027344 102.546875 67.351562 102.625 C 68.386719 102.902344 68.386719 102.902344 69.199219 102.398438 C 69.597656 102.796875 69.992188 103.191406 70.398438 103.601562 C 69.886719 103.625 69.378906 103.648438 68.851562 103.675781 C 68.5625 103.6875 68.273438 103.703125 67.976562 103.71875 C 67.722656 103.679688 67.464844 103.640625 67.199219 103.601562 C 66.9375 103.203125 66.671875 102.808594 66.398438 102.398438 Z M 66.398438 102.398438 " /><path style=" stroke:none;fill-rule:nonzero;fill:rgb(43.921569%,53.333333%,68.235294%);fill-opacity:1;" d="M 80.800781 90 C 81.996094 90.4375 82.339844 90.671875 82.898438 91.851562 C 83 92.164062 83.097656 92.476562 83.199219 92.800781 C 82.003906 92.359375 81.660156 92.128906 81.101562 90.949219 C 81 90.636719 80.902344 90.324219 80.800781 90 Z M 80.800781 90 " /><path style=" stroke:none;fill-rule:nonzero;fill:rgb(13.333333%,40.784314%,74.901961%);fill-opacity:1;" d="M 82.398438 106 C 82.664062 106.394531 82.929688 106.792969 83.199219 107.199219 C 82.5 108.75 82.5 108.75 81.601562 109.199219 C 81.601562 108.539062 81.601562 107.878906 81.601562 107.199219 C 81.863281 107.199219 82.128906 107.199219 82.398438 107.199219 C 82.398438 106.804688 82.398438 106.40625 82.398438 106 Z M 82.398438 106 " /><path style=" stroke:none;fill-rule:nonzero;fill:rgb(27.843137%,56.470588%,96.470588%);fill-opacity:1;" d="M 64.800781 100.800781 C 64.933594 100.800781 65.0625 100.800781 65.199219 100.800781 C 65.199219 101.59375 65.199219 102.382812 65.199219 103.199219 C 64.539062 103.199219 63.878906 103.199219 63.199219 103.199219 C 63.464844 102.671875 63.726562 102.144531 64 101.601562 C 64.265625 101.601562 64.527344 101.601562 64.800781 101.601562 C 64.800781 101.335938 64.800781 101.070312 64.800781 100.800781 Z M 64.800781 100.800781 " /></g></svg>